<?xml version="1.0" encoding="UTF-8"?>
<svg width="820px" height="340px" viewBox="0 0 820 340" version="1.1" xmlns="http://www.w3.org/2000/svg" xmlns:xlink="http://www.w3.org/1999/xlink">
    <!-- Generator: Sketch 48.2 (47327) - http://www.bohemiancoding.com/sketch -->
    <title>Banner</title>
    <desc>Created with Sketch.</desc>
    <defs></defs>
    <g id="Page-1" stroke="none" stroke-width="1" fill="none" fill-rule="evenodd">
        <g id="Banner">
            <rect id="Rectangle" fill="#4D4D58" x="0" y="0" width="820" height="340"></rect>
            <g id="leaf" transform="translate(702.000000, 192.000000)">
                <g transform="translate(65.809908, 94.931656) rotate(-345.000000) translate(-65.809908, -94.931656) translate(20.809908, 9.181656)" id="Combined-Shape">
                    <path d="M14.7448908,48.2674859 L28.1879856,59.5809402 L19.4297204,38.943381 C26.1746393,26.3323077 34.6756538,13.5121066 44.9327641,0.482777501 C55.1898743,13.5121066 63.6908888,26.3323077 70.4358077,38.943381 L61.6775425,59.5809402 L75.1206373,48.2674859 C80.8907465,60.5501528 84.9673457,72.6311451 87.3504349,84.5104625 L74.898475,101.037396 L88.9208627,94.1729568 C89.5506396,99.2480106 89.8655281,104.285565 89.8655281,109.285621 C89.8655281,115.469174 89.3839317,121.208247 88.420739,126.50284 L69.6239243,139.666649 L85.5343965,137.406976 C79.1216452,155.266208 65.5877677,166.553139 44.9327641,171.267769 C24.2777604,166.553139 10.7438829,155.266208 4.3311316,137.406976 L20.2416038,139.666649 L1.44478913,126.50284 C0.481596376,121.208247 0,115.469174 0,109.285621 C0,104.285565 0.314888476,99.2480106 0.944665427,94.1729568 L14.9670531,101.037396 L2.51509324,84.5104625 C4.89818242,72.6311451 8.9747816,60.5501528 14.7448908,48.2674859 Z" fill="#92D4B1"></path>
                    <path d="M44.9327641,0.482777501 L44.9327641,171.267769 C24.2777604,166.553139 10.7438829,155.266208 4.3311316,137.406976 L20.2416038,139.666649 L1.44478913,126.50284 C0.481596376,121.208247 0,115.469174 0,109.285621 C0,104.285565 0.314888476,99.2480106 0.944665427,94.1729568 L14.9670531,101.037396 L2.51509324,84.5104625 C4.89818242,72.6311451 8.9747816,60.5501528 14.7448908,48.2674859 L28.1879856,59.5809402 L19.4297204,38.943381 C26.1746393,26.3323077 34.6756538,13.5121066 44.9327641,0.482777501 Z" fill="#A8FFC9"></path>
                </g>
            </g>
            <g id="leaf" transform="translate(478.725308, 321.052386) rotate(-30.000000) translate(-478.725308, -321.052386) translate(427.225308, 246.802386)">
                <g transform="translate(51.351671, 74.446404) rotate(-345.000000) translate(-51.351671, -74.446404) translate(16.238035, 7.200351)" id="Combined-Shape">
                    <path d="M11.505483,37.8518705 L21.9951706,46.7240005 L15.1610697,30.5398093 C20.4241504,20.6500729 27.0575178,10.5963362 35.061172,0.378599198 C43.0648261,10.5963362 49.6981935,20.6500729 54.9612742,30.5398093 L48.1271733,46.7240005 L58.6168609,37.8518705 C63.1192946,47.4840672 66.3002773,56.9581085 68.159809,66.2739943 L58.443507,79.2345893 L69.3852186,73.851424 C69.8766355,77.8313347 70.1223439,81.7818381 70.1223439,85.7029344 C70.1223439,90.5521415 69.7465528,95.0527828 68.9949706,99.2048585 L54.3277591,109.528057 L66.7427488,107.755997 C61.7388595,121.761395 51.1783339,130.612725 35.061172,134.309987 C18.94401,130.612725 8.3834844,121.761395 3.37959512,107.755997 L15.7945848,109.528057 L1.12737333,99.2048585 C0.375791112,95.0527828 0,90.5521415 0,85.7029344 C0,81.7818381 0.245708432,77.8313347 0.737125295,73.851424 L11.6788369,79.2345893 L1.96253488,66.2739943 C3.82206659,56.9581085 7.00304928,47.4840672 11.505483,37.8518705 Z" fill="#92D4B1"></path>
                    <path d="M35.061172,0.378599198 L35.061172,134.309987 C18.94401,130.612725 8.3834844,121.761395 3.37959512,107.755997 L15.7945848,109.528057 L1.12737333,99.2048585 C0.375791112,95.0527828 0,90.5521415 0,85.7029344 C0,81.7818381 0.245708432,77.8313347 0.737125295,73.851424 L11.6788369,79.2345893 L1.96253488,66.2739943 C3.82206659,56.9581085 7.00304928,47.4840672 11.505483,37.8518705 L21.9951706,46.7240005 L15.1610697,30.5398093 C20.4241504,20.6500729 27.0575178,10.5963362 35.061172,0.378599198 Z" fill="#A8FFC9"></path>
                </g>
            </g>
            <g id="leaf" transform="translate(350.500000, -0.750000) rotate(-180.000000) translate(-350.500000, 0.750000) translate(299.000000, -75.000000)">
                <g transform="translate(51.351671, 74.446404) rotate(-345.000000) translate(-51.351671, -74.446404) translate(16.238035, 7.200351)" id="Combined-Shape">
                    <path d="M11.505483,37.8518705 L21.9951706,46.7240005 L15.1610697,30.5398093 C20.4241504,20.6500729 27.0575178,10.5963362 35.061172,0.378599198 C43.0648261,10.5963362 49.6981935,20.6500729 54.9612742,30.5398093 L48.1271733,46.7240005 L58.6168609,37.8518705 C63.1192946,47.4840672 66.3002773,56.9581085 68.159809,66.2739943 L58.443507,79.2345893 L69.3852186,73.851424 C69.8766355,77.8313347 70.1223439,81.7818381 70.1223439,85.7029344 C70.1223439,90.5521415 69.7465528,95.0527828 68.9949706,99.2048585 L54.3277591,109.528057 L66.7427488,107.755997 C61.7388595,121.761395 51.1783339,130.612725 35.061172,134.309987 C18.94401,130.612725 8.3834844,121.761395 3.37959512,107.755997 L15.7945848,109.528057 L1.12737333,99.2048585 C0.375791112,95.0527828 0,90.5521415 0,85.7029344 C0,81.7818381 0.245708432,77.8313347 0.737125295,73.851424 L11.6788369,79.2345893 L1.96253488,66.2739943 C3.82206659,56.9581085 7.00304928,47.4840672 11.505483,37.8518705 Z" fill="#92D4B1"></path>
                    <path d="M35.061172,0.378599198 L35.061172,134.309987 C18.94401,130.612725 8.3834844,121.761395 3.37959512,107.755997 L15.7945848,109.528057 L1.12737333,99.2048585 C0.375791112,95.0527828 0,90.5521415 0,85.7029344 C0,81.7818381 0.245708432,77.8313347 0.737125295,73.851424 L11.6788369,79.2345893 L1.96253488,66.2739943 C3.82206659,56.9581085 7.00304928,47.4840672 11.505483,37.8518705 L21.9951706,46.7240005 L15.1610697,30.5398093 C20.4241504,20.6500729 27.0575178,10.5963362 35.061172,0.378599198 Z" fill="#A8FFC9"></path>
                </g>
            </g>
            <g id="leaf" transform="translate(33.923036, 297.813964) rotate(-360.000000) translate(-33.923036, -297.813964) translate(-42.548150, 187.561817)">
                <g transform="translate(76.279666, 110.420505) rotate(-345.000000) translate(-76.279666, -110.420505) translate(24.120576, 10.679715)" id="Combined-Shape">
                    <path d="M17.0906689,56.1427073 L32.6724379,69.302041 L22.5208123,45.2973011 C30.3387865,30.6286316 40.1922351,15.7167134 52.0811583,0.561546462 C63.9700815,15.7167134 73.8235302,30.6286316 81.6415044,45.2973011 L71.4898788,69.302041 L87.0716478,56.1427073 C93.7597289,70.4293883 98.484878,84.4814898 101.247095,98.2990117 L86.8141415,117.522445 L103.067364,109.538018 C103.797332,115.441107 104.162317,121.300579 104.162317,127.116433 C104.162317,134.308881 103.604103,140.984329 102.487675,147.142777 L80.7004578,162.454366 L99.1421414,159.826009 C91.7091797,180.599116 76.0221853,193.727599 52.0811583,199.211458 C28.1401314,193.727599 12.453137,180.599116 5.02017527,159.826009 L23.4618589,162.454366 L1.67464194,147.142777 C0.558213981,140.984329 0,134.308881 0,127.116433 C0,121.300579 0.364984369,115.441107 1.09495311,109.538018 L17.3481752,117.522445 L2.91522171,98.2990117 C5.67743872,84.4814898 10.4025878,70.4293883 17.0906689,56.1427073 Z" fill="#92D4B1"></path>
                    <path d="M52.0811583,0.561546462 L52.0811583,199.211458 C28.1401314,193.727599 12.453137,180.599116 5.02017527,159.826009 L23.4618589,162.454366 L1.67464194,147.142777 C0.558213981,140.984329 0,134.308881 0,127.116433 C0,121.300579 0.364984369,115.441107 1.09495311,109.538018 L17.3481752,117.522445 L2.91522171,98.2990117 C5.67743872,84.4814898 10.4025878,70.4293883 17.0906689,56.1427073 L32.6724379,69.302041 L22.5208123,45.2973011 C30.3387865,30.6286316 40.1922351,15.7167134 52.0811583,0.561546462 Z" fill="#A8FFC9"></path>
                </g>
            </g>
            <g id="bananas" transform="translate(641.000000, -2.000000)">
                <g id="banana" transform="translate(63.547243, 63.047243) scale(-1, 1) rotate(-45.000000) translate(-63.547243, -63.047243) translate(18.966110, 18.466110)">
                    <g transform="translate(44.186041, 44.402848) rotate(-315.000000) translate(-44.186041, -44.402848) translate(6.166623, 19.992654)">
                        <path d="M47.1248271,30.2820718 C57.7788513,30.2820718 67.6451473,26.9094067 75.7142981,21.1734937 C68.3588417,36.412384 57.3735217,46.0700467 39.9423444,46.0700467 C18.6615627,46.0700467 2.81961085,31.5962938 1.55872292,10.50896 C1.35123682,7.0389225 1.56142059,3.77595818 1.58554686,0.0607099767 C9.07308009,17.8177644 26.6433561,30.2820718 47.1248271,30.2820718 Z" id="Combined-Shape-Copy" fill="#C1A96E"></path>
                        <path d="M43.0316562,38.7507012 C56.1550319,38.7507012 67.8978149,31.8852037 75.7428088,21.0778678 C71.0153834,37.0097236 56.2634827,48.6307689 38.7973415,48.6307689 C17.5165597,48.6307689 0.265077546,31.3792867 0.265077546,10.098505 C0.265077546,6.83885642 0.6698331,3.67374358 1.4318268,0.65068388 C5.92129964,22.5025258 22.8427937,38.7507012 43.0316562,38.7507012 Z" id="Combined-Shape" fill="#FFFAC0"></path>
                    </g>
                </g>
                <g id="banana" transform="translate(75.750000, 78.750000) scale(-1, 1) rotate(-15.000000) translate(-75.750000, -78.750000) translate(24.500000, 27.500000)">
                    <g transform="translate(51.136654, 51.387566) rotate(-315.000000) translate(-51.136654, -51.387566) translate(7.136654, 23.137566)">
                        <path d="M54.5377212,35.0455438 C66.8676593,35.0455438 78.285957,31.1423471 87.6244124,24.5041556 C79.111918,42.1401747 66.3985701,53.3170204 46.2254098,53.3170204 C21.5970894,53.3170204 3.26314514,36.5664973 1.80391528,12.1620549 C1.56379093,8.14616874 1.80703731,4.36992913 1.83495873,0.0702598607 C10.5003062,20.6205588 30.8344458,35.0455438 54.5377212,35.0455438 Z" id="Combined-Shape-Copy" fill="#C1A96E"></path>
                        <path d="M49.8006808,44.8463172 C64.9884077,44.8463172 78.5783701,36.9008537 87.6574079,24.3934874 C82.1863426,42.8314779 65.1139182,56.2805528 44.9002941,56.2805528 C20.2719736,56.2805528 0.306775137,36.3153543 0.306775137,11.6870338 C0.306775137,7.91463158 0.775200104,4.25163583 1.65705798,0.753038647 C6.85274003,26.042249 26.4360421,44.8463172 49.8006808,44.8463172 Z" id="Combined-Shape" fill="#FFFAC0"></path>
                    </g>
                </g>
                <g id="banana" transform="translate(96.302331, 81.410135) scale(-1, 1) rotate(-345.000000) translate(-96.302331, -81.410135) translate(45.052331, 30.160135)">
                    <g transform="translate(51.136654, 51.387566) rotate(-315.000000) translate(-51.136654, -51.387566) translate(7.136654, 23.137566)">
                        <path d="M54.5377212,35.0455438 C66.8676593,35.0455438 78.285957,31.1423471 87.6244124,24.5041556 C79.111918,42.1401747 66.3985701,53.3170204 46.2254098,53.3170204 C21.5970894,53.3170204 3.26314514,36.5664973 1.80391528,12.1620549 C1.56379093,8.14616874 1.80703731,4.36992913 1.83495873,0.0702598607 C10.5003062,20.6205588 30.8344458,35.0455438 54.5377212,35.0455438 Z" id="Combined-Shape-Copy" fill="#C1A96E"></path>
                        <path d="M49.8006808,44.8463172 C64.9884077,44.8463172 78.5783701,36.9008537 87.6574079,24.3934874 C82.1863426,42.8314779 65.1139182,56.2805528 44.9002941,56.2805528 C20.2719736,56.2805528 0.306775137,36.3153543 0.306775137,11.6870338 C0.306775137,7.91463158 0.775200104,4.25163583 1.65705798,0.753038647 C6.85274003,26.042249 26.4360421,44.8463172 49.8006808,44.8463172 Z" id="Combined-Shape" fill="#FFFAC0"></path>
                    </g>
                </g>
            </g>
            <g id="bananas" transform="translate(20.000000, -65.000000)">
                <g id="banana" transform="translate(63.547243, 63.047243) scale(-1, 1) rotate(-45.000000) translate(-63.547243, -63.047243) translate(18.966110, 18.466110)">
                    <g transform="translate(44.186041, 44.402848) rotate(-315.000000) translate(-44.186041, -44.402848) translate(6.166623, 19.992654)">
                        <path d="M47.1248271,30.2820718 C57.7788513,30.2820718 67.6451473,26.9094067 75.7142981,21.1734937 C68.3588417,36.412384 57.3735217,46.0700467 39.9423444,46.0700467 C18.6615627,46.0700467 2.81961085,31.5962938 1.55872292,10.50896 C1.35123682,7.0389225 1.56142059,3.77595818 1.58554686,0.0607099767 C9.07308009,17.8177644 26.6433561,30.2820718 47.1248271,30.2820718 Z" id="Combined-Shape-Copy" fill="#C1A96E"></path>
                        <path d="M43.0316562,38.7507012 C56.1550319,38.7507012 67.8978149,31.8852037 75.7428088,21.0778678 C71.0153834,37.0097236 56.2634827,48.6307689 38.7973415,48.6307689 C17.5165597,48.6307689 0.265077546,31.3792867 0.265077546,10.098505 C0.265077546,6.83885642 0.6698331,3.67374358 1.4318268,0.65068388 C5.92129964,22.5025258 22.8427937,38.7507012 43.0316562,38.7507012 Z" id="Combined-Shape" fill="#FFFAC0"></path>
                    </g>
                </g>
                <g id="banana" transform="translate(75.750000, 78.750000) scale(-1, 1) rotate(-15.000000) translate(-75.750000, -78.750000) translate(24.500000, 27.500000)">
                    <g transform="translate(51.136654, 51.387566) rotate(-315.000000) translate(-51.136654, -51.387566) translate(7.136654, 23.137566)">
                        <path d="M54.5377212,35.0455438 C66.8676593,35.0455438 78.285957,31.1423471 87.6244124,24.5041556 C79.111918,42.1401747 66.3985701,53.3170204 46.2254098,53.3170204 C21.5970894,53.3170204 3.26314514,36.5664973 1.80391528,12.1620549 C1.56379093,8.14616874 1.80703731,4.36992913 1.83495873,0.0702598607 C10.5003062,20.6205588 30.8344458,35.0455438 54.5377212,35.0455438 Z" id="Combined-Shape-Copy" fill="#C1A96E"></path>
                        <path d="M49.8006808,44.8463172 C64.9884077,44.8463172 78.5783701,36.9008537 87.6574079,24.3934874 C82.1863426,42.8314779 65.1139182,56.2805528 44.9002941,56.2805528 C20.2719736,56.2805528 0.306775137,36.3153543 0.306775137,11.6870338 C0.306775137,7.91463158 0.775200104,4.25163583 1.65705798,0.753038647 C6.85274003,26.042249 26.4360421,44.8463172 49.8006808,44.8463172 Z" id="Combined-Shape" fill="#FFFAC0"></path>
                    </g>
                </g>
                <g id="banana" transform="translate(96.302331, 81.410135) scale(-1, 1) rotate(-345.000000) translate(-96.302331, -81.410135) translate(45.052331, 30.160135)">
                    <g transform="translate(51.136654, 51.387566) rotate(-315.000000) translate(-51.136654, -51.387566) translate(7.136654, 23.137566)">
                        <path d="M54.5377212,35.0455438 C66.8676593,35.0455438 78.285957,31.1423471 87.6244124,24.5041556 C79.111918,42.1401747 66.3985701,53.3170204 46.2254098,53.3170204 C21.5970894,53.3170204 3.26314514,36.5664973 1.80391528,12.1620549 C1.56379093,8.14616874 1.80703731,4.36992913 1.83495873,0.0702598607 C10.5003062,20.6205588 30.8344458,35.0455438 54.5377212,35.0455438 Z" id="Combined-Shape-Copy" fill="#C1A96E"></path>
                        <path d="M49.8006808,44.8463172 C64.9884077,44.8463172 78.5783701,36.9008537 87.6574079,24.3934874 C82.1863426,42.8314779 65.1139182,56.2805528 44.9002941,56.2805528 C20.2719736,56.2805528 0.306775137,36.3153543 0.306775137,11.6870338 C0.306775137,7.91463158 0.775200104,4.25163583 1.65705798,0.753038647 C6.85274003,26.042249 26.4360421,44.8463172 49.8006808,44.8463172 Z" id="Combined-Shape" fill="#FFFAC0"></path>
                    </g>
                </g>
            </g>
            <g id="bananas" transform="translate(260.000000, 321.500000) scale(-1, 1) translate(-260.000000, -321.500000) translate(180.000000, 249.000000)">
                <g id="banana" transform="translate(63.547243, 63.047243) scale(-1, 1) rotate(-45.000000) translate(-63.547243, -63.047243) translate(18.966110, 18.466110)">
                    <g transform="translate(44.186041, 44.402848) rotate(-315.000000) translate(-44.186041, -44.402848) translate(6.166623, 19.992654)">
                        <path d="M47.1248271,30.2820718 C57.7788513,30.2820718 67.6451473,26.9094067 75.7142981,21.1734937 C68.3588417,36.412384 57.3735217,46.0700467 39.9423444,46.0700467 C18.6615627,46.0700467 2.81961085,31.5962938 1.55872292,10.50896 C1.35123682,7.0389225 1.56142059,3.77595818 1.58554686,0.0607099767 C9.07308009,17.8177644 26.6433561,30.2820718 47.1248271,30.2820718 Z" id="Combined-Shape-Copy" fill="#C1A96E"></path>
                        <path d="M43.0316562,38.7507012 C56.1550319,38.7507012 67.8978149,31.8852037 75.7428088,21.0778678 C71.0153834,37.0097236 56.2634827,48.6307689 38.7973415,48.6307689 C17.5165597,48.6307689 0.265077546,31.3792867 0.265077546,10.098505 C0.265077546,6.83885642 0.6698331,3.67374358 1.4318268,0.65068388 C5.92129964,22.5025258 22.8427937,38.7507012 43.0316562,38.7507012 Z" id="Combined-Shape" fill="#FFFAC0"></path>
                    </g>
                </g>
                <g id="banana" transform="translate(75.750000, 78.750000) scale(-1, 1) rotate(-15.000000) translate(-75.750000, -78.750000) translate(24.500000, 27.500000)">
                    <g transform="translate(51.136654, 51.387566) rotate(-315.000000) translate(-51.136654, -51.387566) translate(7.136654, 23.137566)">
                        <path d="M54.5377212,35.0455438 C66.8676593,35.0455438 78.285957,31.1423471 87.6244124,24.5041556 C79.111918,42.1401747 66.3985701,53.3170204 46.2254098,53.3170204 C21.5970894,53.3170204 3.26314514,36.5664973 1.80391528,12.1620549 C1.56379093,8.14616874 1.80703731,4.36992913 1.83495873,0.0702598607 C10.5003062,20.6205588 30.8344458,35.0455438 54.5377212,35.0455438 Z" id="Combined-Shape-Copy" fill="#C1A96E"></path>
                        <path d="M49.8006808,44.8463172 C64.9884077,44.8463172 78.5783701,36.9008537 87.6574079,24.3934874 C82.1863426,42.8314779 65.1139182,56.2805528 44.9002941,56.2805528 C20.2719736,56.2805528 0.306775137,36.3153543 0.306775137,11.6870338 C0.306775137,7.91463158 0.775200104,4.25163583 1.65705798,0.753038647 C6.85274003,26.042249 26.4360421,44.8463172 49.8006808,44.8463172 Z" id="Combined-Shape" fill="#FFFAC0"></path>
                    </g>
                </g>
                <g id="banana" transform="translate(96.302331, 81.410135) scale(-1, 1) rotate(-345.000000) translate(-96.302331, -81.410135) translate(45.052331, 30.160135)">
                    <g transform="translate(51.136654, 51.387566) rotate(-315.000000) translate(-51.136654, -51.387566) translate(7.136654, 23.137566)">
                        <path d="M54.5377212,35.0455438 C66.8676593,35.0455438 78.285957,31.1423471 87.6244124,24.5041556 C79.111918,42.1401747 66.3985701,53.3170204 46.2254098,53.3170204 C21.5970894,53.3170204 3.26314514,36.5664973 1.80391528,12.1620549 C1.56379093,8.14616874 1.80703731,4.36992913 1.83495873,0.0702598607 C10.5003062,20.6205588 30.8344458,35.0455438 54.5377212,35.0455438 Z" id="Combined-Shape-Copy" fill="#C1A96E"></path>
                        <path d="M49.8006808,44.8463172 C64.9884077,44.8463172 78.5783701,36.9008537 87.6574079,24.3934874 C82.1863426,42.8314779 65.1139182,56.2805528 44.9002941,56.2805528 C20.2719736,56.2805528 0.306775137,36.3153543 0.306775137,11.6870338 C0.306775137,7.91463158 0.775200104,4.25163583 1.65705798,0.753038647 C6.85274003,26.042249 26.4360421,44.8463172 49.8006808,44.8463172 Z" id="Combined-Shape" fill="#FFFAC0"></path>
                    </g>
                </g>
            </g>
            <g id="logo" transform="translate(179.500000, 117.000000)" fill="#FFFFFF">
                <g id="Group">
                    <path d="M434.356208,126.243569 C432.8253,142.098148 419.259127,154.5 402.75,154.5 C385.214959,154.5 371,140.508898 371,123.25 C371,109.521266 379.99457,97.860244 392.5,93.6642861 L392.5,32 L390,32 C386.410149,32 383.5,29.0898509 383.5,25.5 L383.5,23.5 C383.5,19.9101491 386.410149,17 390,17 L392.528093,17 C393.046361,7.80031115 400.670641,0.5 410,0.5 L431,0.5 L431,0.515823699 C447.658017,1.04372854 461,14.7137707 461,31.5 C461,45.6854904 451.471977,57.6455918 438.466541,61.3296943 C445.242164,62.77403 450.32409,68.7935413 450.32409,76 C450.32409,76.8175559 450.257251,77.6337435 450.124239,78.4404068 L447.641053,93.5 L451,93.5 C454.865993,93.5 458,96.6340068 458,100.5 L458,106.5 C458,107.052285 457.552285,107.5 457,107.5 L431,107.5 L430.178557,107.5 L403.000008,107.5 C394.163444,107.5 387,114.551515 387,123.25 C387,131.948485 394.163444,139 403,139 C411.409154,139 418.303131,132.614116 418.950347,124.5 L419.003956,124.5 C419.135932,120.335496 422.553443,117 426.75,117 C431.030207,117 434.5,120.469793 434.5,124.75 C434.5,125.26091 434.450562,125.760273 434.356208,126.243566 Z M443.119354,32 L444,32 C447.589851,32 450.5,29.0898509 450.5,25.5 C450.5,21.9101491 447.589851,19 444,19 L423.5,19 C419.910149,19 417,21.9101491 417,25.5 C417,29.0898509 419.910149,32 423.5,32 L424.880646,32 C424.315502,33.2157377 424,34.5710242 424,36 C424,41.2467051 428.253295,45.5 433.5,45.5 L434.5,45.5 C439.746705,45.5 444,41.2467051 444,36 C444,34.5710242 443.684498,33.2157377 443.119354,32 Z M426,27.5 C424.895431,27.5 424,26.6045695 424,25.5 C424,24.3954305 424.895431,23.5 426,23.5 C427.104569,23.5 428,24.3954305 428,25.5 C428,26.6045695 427.104569,27.5 426,27.5 Z M443,27.5 C441.895431,27.5 441,26.6045695 441,25.5 C441,24.3954305 441.895431,23.5 443,23.5 C444.104569,23.5 445,24.3954305 445,25.5 C445,26.6045695 444.104569,27.5 443,27.5 Z M2.96296966,105.48172 C1.03703938,105.48172 0,104.444681 0,102.51875 L0,4.74075146 C0,2.81482118 1.03703938,1.7777818 2.96296966,1.7777818 L18.6667089,1.7777818 C20.5926391,1.7777818 21.6296785,2.81482118 21.6296785,4.74075146 L21.6296785,44.1482479 L27.1111724,44.1482479 L33.3334087,4.44445449 C33.6297056,2.51852421 34.8148935,1.7777818 36.5926753,1.7777818 L52.2964145,1.7777818 C54.3704933,1.7777818 55.4075326,3.11111814 54.9630872,5.03704842 L45.7778812,51.1112266 C51.4075236,55.7038296 54.0741963,63.5556992 54.0741963,72.7409052 L54.0741963,102.51875 C54.0741963,104.444681 53.0371569,105.48172 51.1112266,105.48172 L35.1111905,105.48172 C33.1852602,105.48172 32.1482208,104.444681 32.1482208,102.51875 L32.1482208,72.0001627 C32.1482208,66.5186689 30.0741421,64.1482931 25.0370936,64.1482931 L21.6296785,64.1482931 L21.6296785,102.51875 C21.6296785,104.444681 20.5926391,105.48172 18.6667089,105.48172 L2.96296966,105.48172 Z M91.3780453,107.259502 C74.7854152,107.259502 63.5261305,95.8520685 63.5261305,78.6668445 L63.5261305,28.5926572 C63.5261305,11.4074332 74.7854152,0 91.3780453,0 C107.970675,0 119.22996,11.4074332 119.22996,28.5926572 L119.22996,78.6668445 C119.22996,95.8520685 107.970675,107.259502 91.3780453,107.259502 Z M91.3780453,86.9631595 C95.0817574,86.9631595 97.3039847,84.5927838 97.3039847,80.4446263 L97.3039847,26.8148754 C97.3039847,22.6667179 95.0817574,20.2963422 91.3780453,20.2963422 C87.6743333,20.2963422 85.452106,22.6667179 85.452106,26.8148754 L85.452106,80.4446263 C85.452106,84.5927838 87.6743333,86.9631595 91.3780453,86.9631595 Z M139.496734,106.222462 C133.718943,106.222462 130.607825,103.111344 130.607825,97.3335533 L130.607825,9.92594836 C130.607825,4.14815752 133.718943,1.03703938 139.496734,1.03703938 L157.274552,1.03703938 C173.719033,1.03703938 184.682021,12.4444726 184.682021,29.6296966 L184.682021,77.6298051 C184.682021,94.8150291 173.719033,106.222462 157.274552,106.222462 L139.496734,106.222462 Z M152.385652,86.2224171 L155.793067,86.2224171 C160.681967,86.2224171 162.756045,83.8520414 162.756045,78.3705475 L162.756045,28.8889542 C162.756045,23.4074603 160.681967,21.0370846 155.793067,21.0370846 L152.385652,21.0370846 L152.385652,86.2224171 Z M198.430261,105.48172 C196.504331,105.48172 195.467292,104.444681 195.467292,102.51875 L195.467292,28.5926572 C195.467292,11.4074332 206.430279,0 222.726612,0 C239.022946,0 249.985933,11.4074332 249.985933,28.5926572 L249.985933,102.51875 C249.985933,104.444681 248.948894,105.48172 247.022964,105.48172 L231.171076,105.48172 C229.245146,105.48172 228.208106,104.444681 228.208106,102.51875 L228.208106,75.5557263 L217.245119,75.5557263 L217.245119,102.51875 C217.245119,104.444681 216.208079,105.48172 214.282149,105.48172 L198.430261,105.48172 Z M217.245119,55.5556811 L228.208106,55.5556811 L228.208106,26.8148754 C228.208106,22.8148664 226.134028,20.4444907 222.726612,20.4444907 C219.319197,20.4444907 217.245119,22.8148664 217.245119,26.8148754 L217.245119,55.5556811 Z M264.474916,105.48172 C262.548986,105.48172 261.511946,104.444681 261.511946,102.51875 L261.511946,28.5926572 C261.511946,11.4074332 272.326786,0 288.326822,0 C304.919452,0 316.178737,11.4074332 316.178737,28.5926572 L316.178737,42.0741692 C316.178737,59.2593932 305.215749,70.6668264 288.771267,70.6668264 L283.289773,70.6668264 L283.289773,102.51875 C283.289773,104.444681 282.252734,105.48172 280.326804,105.48172 L264.474916,105.48172 Z M283.289773,50.6667812 L287.289782,50.6667812 C292.178682,50.6667812 294.252761,48.2964055 294.252761,42.8149116 L294.252761,26.8148754 C294.252761,22.8148664 292.178682,20.4444907 288.623119,20.4444907 C285.363852,20.4444907 283.289773,22.8148664 283.289773,26.8148754 L283.289773,50.6667812 Z M351.556655,107.259502 C334.964025,107.259502 323.70474,95.8520685 323.70474,78.6668445 L323.70474,28.5926572 C323.70474,11.4074332 334.964025,0 351.556655,0 C368.149285,0 379.40857,11.4074332 379.40857,28.5926572 L379.40857,78.6668445 C379.40857,95.8520685 368.149285,107.259502 351.556655,107.259502 Z M351.556655,86.9631595 C355.260367,86.9631595 357.482595,84.5927838 357.482595,80.4446263 L357.482595,26.8148754 C357.482595,22.6667179 355.260367,20.2963422 351.556655,20.2963422 C347.852943,20.2963422 345.630716,22.6667179 345.630716,26.8148754 L345.630716,80.4446263 C345.630716,84.5927838 347.852943,86.9631595 351.556655,86.9631595 Z" id="Combined-Shape"></path>
                </g>
            </g>
        </g>
    </g>
</svg>