<?xml version="1.0" encoding="UTF-8"?>
<svg width="2880px" height="1800px" viewBox="0 0 2880 1800" version="1.1" xmlns="http://www.w3.org/2000/svg" xmlns:xlink="http://www.w3.org/1999/xlink">
    <!-- Generator: Sketch 48.2 (47327) - http://www.bohemiancoding.com/sketch -->
    <title>Desktop</title>
    <desc>Created with Sketch.</desc>
    <defs></defs>
    <g id="Page-1" stroke="none" stroke-width="1" fill="none" fill-rule="evenodd">
        <g id="Desktop">
            <rect id="Rectangle-4" fill="#4D4D58" x="0" y="0" width="2880" height="1800"></rect>
            <g id="leaf" transform="translate(2261.000000, 1275.000000)">
                <g transform="translate(330.196056, 476.097585) rotate(-345.000000) translate(-330.196056, -476.097585) translate(104.412083, 46.047486)" id="Combined-Shape">
                    <path d="M73.9813335,242.069237 L141.431008,298.808038 L97.487099,195.307345 C131.329201,132.060776 173.982375,67.7653966 225.446621,2.42120714 C276.910867,67.7653966 319.564041,132.060776 353.406143,195.307345 L309.462234,298.808038 L376.911909,242.069237 C405.862979,303.668796 426.316996,364.256923 438.273959,423.833618 L375.797227,506.718858 L446.153457,472.292588 C449.313314,497.744802 450.893242,523.008953 450.893242,548.08504 C450.893242,579.096555 448.47687,607.878932 443.644126,634.432172 L349.332582,700.450803 L429.162129,689.118177 C396.986652,778.685109 329.081483,835.290891 225.446621,858.935523 C121.81176,835.290891 53.9065903,778.685109 21.7311133,689.118177 L101.56066,700.450803 L7.24911618,634.432172 C2.41637206,607.878932 0,579.096555 0,548.08504 C0,523.008953 1.57992824,497.744802 4.73978472,472.292588 L75.0960154,506.718858 L12.6192831,423.833618 C24.5762463,364.256923 45.0302631,303.668796 73.9813335,242.069237 Z" fill="#92D4B1"></path>
                    <path d="M225.446621,2.42120714 L225.446621,858.935523 C121.81176,835.290891 53.9065903,778.685109 21.7311133,689.118177 L101.56066,700.450803 L7.24911618,634.432172 C2.41637206,607.878932 0,579.096555 0,548.08504 C0,523.008953 1.57992824,497.744802 4.73978472,472.292588 L75.0960154,506.718858 L12.6192831,423.833618 C24.5762463,364.256923 45.0302631,303.668796 73.9813335,242.069237 L141.431008,298.808038 L97.487099,195.307345 C131.329201,132.060776 173.982375,67.7653966 225.446621,2.42120714 Z" fill="#A8FFC9"></path>
                </g>
            </g>
            <g id="leaf" transform="translate(1647.035229, 1690.281552) rotate(-30.000000) translate(-1647.035229, -1690.281552) translate(1407.023643, 1344.245430)">
                <g transform="translate(240.142586, 346.434836) rotate(-345.000000) translate(-240.142586, -346.434836) translate(75.936061, 33.506688)" id="Combined-Shape">
                    <path d="M53.8046062,176.142915 L102.858915,217.429192 L70.8997084,142.116386 C95.5121459,96.0946972 126.532636,49.3098365 163.961179,1.76180372 C201.389722,49.3098365 232.410212,96.0946972 257.02265,142.116386 L225.063443,217.429192 L274.117752,176.142915 C295.173076,220.966148 310.048724,265.053407 318.744697,308.404694 L273.307074,368.716561 L324.475242,343.66611 C326.773319,362.186544 327.922358,380.570132 327.922358,398.816874 C327.922358,421.382561 326.164996,442.326205 322.650273,461.647805 L254.06006,509.686599 L312.117912,501.440356 C288.717565,566.614191 239.331987,607.803677 163.961179,625.008814 C88.5903706,607.803677 39.2047929,566.614191 15.804446,501.440356 L73.8622982,509.686599 L5.2720845,461.647805 C1.7573615,442.326205 0,421.382561 0,398.816874 C0,380.570132 1.14903872,362.186544 3.44711616,343.66611 L54.615284,368.716561 L9.17766047,308.404694 C17.8736337,265.053407 32.7492822,220.966148 53.8046062,176.142915 Z" fill="#92D4B1"></path>
                    <path d="M163.961179,1.76180372 L163.961179,625.008814 C88.5903706,607.803677 39.2047929,566.614191 15.804446,501.440356 L73.8622982,509.686599 L5.2720845,461.647805 C1.7573615,442.326205 0,421.382561 0,398.816874 C0,380.570132 1.14903872,362.186544 3.44711616,343.66611 L54.615284,368.716561 L9.17766047,308.404694 C17.8736337,265.053407 32.7492822,220.966148 53.8046062,176.142915 L102.858915,217.429192 L70.8997084,142.116386 C95.5121459,96.0946972 126.532636,49.3098365 163.961179,1.76180372 Z" fill="#A8FFC9"></path>
                </g>
            </g>
            <g id="leaf" transform="translate(1234.865320, 195.500000) rotate(-180.000000) translate(-1234.865320, -195.500000) translate(998.000000, -146.000000)">
                <g transform="translate(237.140804, 341.929180) rotate(-345.000000) translate(-237.140804, -341.929180) translate(74.986860, 33.070908)" id="Combined-Shape">
                    <path d="M53.1320486,173.852039 L101.573178,214.601356 L70.013462,140.268051 C94.3182441,94.8449107 124.950978,48.6685236 161.911664,1.73889009 C198.87235,48.6685236 229.505084,94.8449107 253.809866,140.268051 L222.25015,214.601356 L270.69128,173.852039 C291.483412,218.092311 306.173115,261.606181 314.760389,304.39365 L269.890736,363.921114 L320.419301,339.196464 C322.688653,357.476025 323.823328,375.62052 323.823328,393.62995 C323.823328,415.902152 322.087934,436.573408 318.617145,455.643715 L250.884309,503.057727 L308.216438,494.918733 C285.108595,559.244931 236.340337,599.898716 161.911664,616.880087 C87.4829909,599.898716 38.714733,559.244931 15.6068904,494.918733 L72.9390195,503.057727 L5.20618344,455.643715 C1.73539448,436.573408 0,415.902152 0,393.62995 C0,375.62052 1.13467574,357.476025 3.40402721,339.196464 L53.9325929,363.921114 L9.06293971,304.39365 C17.6502132,261.606181 32.3399162,218.092311 53.1320486,173.852039 Z" fill="#92D4B1"></path>
                    <path d="M161.911664,1.73889009 L161.911664,616.880087 C87.4829909,599.898716 38.714733,559.244931 15.6068904,494.918733 L72.9390195,503.057727 L5.20618344,455.643715 C1.73539448,436.573408 0,415.902152 0,393.62995 C0,375.62052 1.13467574,357.476025 3.40402721,339.196464 L53.9325929,363.921114 L9.06293971,304.39365 C17.6502132,261.606181 32.3399162,218.092311 53.1320486,173.852039 L101.573178,214.601356 L70.013462,140.268051 C94.3182441,94.8449107 124.950978,48.6685236 161.911664,1.73889009 Z" fill="#A8FFC9"></path>
                </g>
            </g>
            <g id="leaf" transform="translate(158.000000, 1641.603902) rotate(-360.000000) translate(-158.000000, -1641.603902) translate(-167.024929, 1173.000000)">
                <g transform="translate(325.193085, 469.088788) rotate(-345.000000) translate(-325.193085, -469.088788) translate(102.830082, 45.369605)" id="Combined-Shape">
                    <path d="M72.8604042,238.505652 L139.288114,294.409181 L96.0100218,192.432158 C129.339364,130.116664 171.346278,66.7677988 222.030763,2.38556371 C272.715248,66.7677988 314.722162,130.116664 348.051505,192.432158 L304.773412,294.409181 L371.201122,238.505652 C399.71354,299.198382 419.857647,358.89457 431.633444,417.594217 L370.103329,499.259274 L439.393556,465.339805 C442.505536,490.417329 444.061526,515.309557 444.061526,540.01649 C444.061526,570.571474 441.681766,598.930136 436.922245,625.092476 L344.039664,690.139224 L422.659672,678.97343 C390.971703,767.221816 324.095399,822.994285 222.030763,846.290836 C119.966127,822.994285 53.0898238,767.221816 21.401854,678.97343 L100.021862,690.139224 L7.13928109,625.092476 C2.37976036,598.930136 0,570.571474 0,540.01649 C0,515.309557 1.55598993,490.417329 4.6679698,465.339805 L73.958197,499.259274 L12.4280819,417.594217 C24.2038789,358.89457 44.3479864,299.198382 72.8604042,238.505652 Z" fill="#92D4B1"></path>
                    <path d="M222.030763,2.38556371 L222.030763,846.290836 C119.966127,822.994285 53.0898238,767.221816 21.401854,678.97343 L100.021862,690.139224 L7.13928109,625.092476 C2.37976036,598.930136 0,570.571474 0,540.01649 C0,515.309557 1.55598993,490.417329 4.6679698,465.339805 L73.958197,499.259274 L12.4280819,417.594217 C24.2038789,358.89457 44.3479864,299.198382 72.8604042,238.505652 L139.288114,294.409181 L96.0100218,192.432158 C129.339364,130.116664 171.346278,66.7677988 222.030763,2.38556371 Z" fill="#A8FFC9"></path>
                </g>
            </g>
            <g id="bananas" transform="translate(68.000000, -199.000000)">
                <g id="banana" transform="translate(223.190318, 221.434220) scale(-1, 1) rotate(-45.000000) translate(-223.190318, -221.434220) translate(66.612679, 64.856582)">
                    <g transform="translate(156.153880, 156.920078) rotate(-315.000000) translate(-156.153880, -156.920078) translate(21.792905, 70.654225)">
                        <path d="M166.539578,107.017124 C204.190999,107.017124 239.058581,95.0980941 267.575035,74.8273239 C241.580784,128.681704 202.75856,162.811974 141.156617,162.811974 C65.9501364,162.811974 9.96453101,111.661597 5.50854131,37.1387627 C4.77528353,24.8756177 5.5180749,13.3442714 5.60333739,0.214549623 C32.0643496,62.9681455 94.1578687,107.017124 166.539578,107.017124 Z" id="Combined-Shape-Copy" fill="#C1A96E"></path>
                        <path d="M152.074274,136.945339 C198.452406,136.945339 239.951511,112.682607 267.675792,74.4893811 C250.969027,130.792708 198.835672,171.86159 137.110166,171.86159 C61.9036853,171.86159 0.936786516,110.894692 0.936786516,35.6882107 C0.936786516,24.1685823 2.36719641,12.983044 5.06008925,2.29952289 C20.9259281,79.5241359 80.7266456,136.945339 152.074274,136.945339 Z" id="Combined-Shape" fill="#FFFAC0"></path>
                    </g>
                </g>
                <g id="banana" transform="translate(266.048780, 276.585366) scale(-1, 1) rotate(-15.000000) translate(-266.048780, -276.585366) translate(86.048780, 96.585366)">
                    <g transform="translate(179.601907, 180.483157) rotate(-315.000000) translate(-179.601907, -180.483157) translate(25.065322, 81.263645)">
                        <path d="M191.547119,123.086788 C234.852267,123.086788 274.955556,109.378 307.754034,86.0633757 C277.856492,148.004516 233.204734,187.259779 162.352659,187.259779 C75.853192,187.259779 11.4608024,128.428674 6.33570246,42.7155098 C5.49233888,28.6109341 6.34666762,15.3480438 6.4447331,0.24676634 C36.8791241,72.4234261 108.29659,123.086788 191.547119,123.086788 Z" id="Combined-Shape-Copy" fill="#C1A96E"></path>
                        <path d="M174.909708,157.509016 C228.251968,157.509016 275.982568,129.602998 307.86992,85.6746875 C288.654471,150.432508 228.692786,197.668283 157.698594,197.668283 C71.1991269,197.668283 1.07745414,127.54661 1.07745414,41.0471433 C1.07745414,27.7977304 2.72265402,14.9325746 5.81991095,2.64481866 C24.0681601,91.4654599 92.8485381,157.509016 174.909708,157.509016 Z" id="Combined-Shape" fill="#FFFAC0"></path>
                    </g>
                </g>
                <g id="banana" transform="translate(338.232576, 285.928279) scale(-1, 1) rotate(-345.000000) translate(-338.232576, -285.928279) translate(158.232576, 105.928279)">
                    <g transform="translate(179.601907, 180.483157) rotate(-315.000000) translate(-179.601907, -180.483157) translate(25.065322, 81.263645)">
                        <path d="M191.547119,123.086788 C234.852267,123.086788 274.955556,109.378 307.754034,86.0633757 C277.856492,148.004516 233.204734,187.259779 162.352659,187.259779 C75.853192,187.259779 11.4608024,128.428674 6.33570246,42.7155098 C5.49233888,28.6109341 6.34666762,15.3480438 6.4447331,0.24676634 C36.8791241,72.4234261 108.29659,123.086788 191.547119,123.086788 Z" id="Combined-Shape-Copy" fill="#C1A96E"></path>
                        <path d="M174.909708,157.509016 C228.251968,157.509016 275.982568,129.602998 307.86992,85.6746875 C288.654471,150.432508 228.692786,197.668283 157.698594,197.668283 C71.1991269,197.668283 1.07745414,127.54661 1.07745414,41.0471433 C1.07745414,27.7977304 2.72265402,14.9325746 5.81991095,2.64481866 C24.0681601,91.4654599 92.8485381,157.509016 174.909708,157.509016 Z" id="Combined-Shape" fill="#FFFAC0"></path>
                    </g>
                </g>
            </g>
            <g id="bananas" transform="translate(2029.724138, -35.000000)">
                <g id="banana" transform="translate(256.250866, 256.218906) scale(-1, 1) rotate(-45.000000) translate(-256.250866, -256.218906) translate(75.076740, 75.044780)">
                    <g transform="translate(180.599696, 181.485841) rotate(-315.000000) translate(-180.599696, -181.485841) translate(25.204574, 81.715110)">
                        <path d="M192.611269,123.770603 C236.157002,123.770603 276.483087,109.985655 309.463778,86.5415056 C279.40014,148.826763 234.500316,188.300111 163.254618,188.300111 C76.2745986,188.300111 11.5244736,129.142166 6.37090081,42.9528182 C5.52285188,28.7698837 6.38192688,15.4333107 6.48053717,0.248137264 C37.0840081,72.8257784 108.898238,123.770603 192.611269,123.770603 Z" id="Combined-Shape-Copy" fill="#C1A96E"></path>
                        <path d="M175.881429,158.384066 C229.520035,158.384066 277.515805,130.323015 309.580309,86.150658 C290.258107,151.268244 229.963301,198.76644 158.574697,198.76644 C71.5946776,198.76644 1.08344,128.255202 1.08344,41.275183 C1.08344,27.9521623 2.73777988,15.0155334 5.85224379,2.6595121 C24.2018721,91.9736013 93.3643633,158.384066 175.881429,158.384066 Z" id="Combined-Shape" fill="#FFFAC0"></path>
                    </g>
                </g>
                <g id="banana" transform="translate(305.841884, 320.033642) scale(-1, 1) rotate(-15.000000) translate(-305.841884, -320.033642) translate(97.566022, 111.757780)">
                    <g transform="translate(208.038876, 209.059657) rotate(-315.000000) translate(-208.038876, -209.059657) translate(29.033998, 94.130389)">
                        <path d="M221.875412,142.575529 C272.037209,142.575529 318.490186,126.696183 356.481756,99.6900769 C321.850437,171.438564 270.128817,216.909244 188.058497,216.909244 C87.8632807,216.909244 13.2754295,148.763214 7.33885535,49.4787988 C6.3619592,33.1409987 7.35155666,17.7781507 7.46514918,0.285837677 C42.7183188,83.8904685 125.44355,142.575529 221.875412,142.575529 Z" id="Combined-Shape-Copy" fill="#C1A96E"></path>
                        <path d="M202.603745,182.447944 C264.391863,182.447944 319.679808,150.123473 356.615991,99.2398464 C334.358096,174.250988 264.902477,228.965761 182.667538,228.965761 C82.472322,228.965761 1.24805105,147.74149 1.24805105,47.5462743 C1.24805105,32.1990378 3.15374091,17.2968989 6.74139685,3.06358162 C27.8789521,105.947491 107.549557,182.447944 202.603745,182.447944 Z" id="Combined-Shape" fill="#FFFAC0"></path>
                    </g>
                </g>
                <g id="banana" transform="translate(389.364897, 330.844216) scale(-1, 1) rotate(-345.000000) translate(-389.364897, -330.844216) translate(181.089035, 122.568354)">
                    <g transform="translate(208.038876, 209.059657) rotate(-315.000000) translate(-208.038876, -209.059657) translate(29.033998, 94.130389)">
                        <path d="M221.875412,142.575529 C272.037209,142.575529 318.490186,126.696183 356.481756,99.6900769 C321.850437,171.438564 270.128817,216.909244 188.058497,216.909244 C87.8632807,216.909244 13.2754295,148.763214 7.33885535,49.4787988 C6.3619592,33.1409987 7.35155666,17.7781507 7.46514918,0.285837677 C42.7183188,83.8904685 125.44355,142.575529 221.875412,142.575529 Z" id="Combined-Shape-Copy" fill="#C1A96E"></path>
                        <path d="M202.603745,182.447944 C264.391863,182.447944 319.679808,150.123473 356.615991,99.2398464 C334.358096,174.250988 264.902477,228.965761 182.667538,228.965761 C82.472322,228.965761 1.24805105,147.74149 1.24805105,47.5462743 C1.24805105,32.1990378 3.15374091,17.2968989 6.74139685,3.06358162 C27.8789521,105.947491 107.549557,182.447944 202.603745,182.447944 Z" id="Combined-Shape" fill="#FFFAC0"></path>
                    </g>
                </g>
            </g>
            <g id="bananas" transform="translate(849.975610, 1486.634146) scale(-1, 1) translate(-849.975610, -1486.634146) translate(569.000000, 1232.000000)">
                <g id="banana" transform="translate(223.190318, 221.434220) scale(-1, 1) rotate(-45.000000) translate(-223.190318, -221.434220) translate(66.612679, 64.856582)">
                    <g transform="translate(156.153880, 156.920078) rotate(-315.000000) translate(-156.153880, -156.920078) translate(21.792905, 70.654225)">
                        <path d="M166.539578,107.017124 C204.190999,107.017124 239.058581,95.0980941 267.575035,74.8273239 C241.580784,128.681704 202.75856,162.811974 141.156617,162.811974 C65.9501364,162.811974 9.96453101,111.661597 5.50854131,37.1387627 C4.77528353,24.8756177 5.5180749,13.3442714 5.60333739,0.214549623 C32.0643496,62.9681455 94.1578687,107.017124 166.539578,107.017124 Z" id="Combined-Shape-Copy" fill="#C1A96E"></path>
                        <path d="M152.074274,136.945339 C198.452406,136.945339 239.951511,112.682607 267.675792,74.4893811 C250.969027,130.792708 198.835672,171.86159 137.110166,171.86159 C61.9036853,171.86159 0.936786516,110.894692 0.936786516,35.6882107 C0.936786516,24.1685823 2.36719641,12.983044 5.06008925,2.29952289 C20.9259281,79.5241359 80.7266456,136.945339 152.074274,136.945339 Z" id="Combined-Shape" fill="#FFFAC0"></path>
                    </g>
                </g>
                <g id="banana" transform="translate(266.048780, 276.585366) scale(-1, 1) rotate(-15.000000) translate(-266.048780, -276.585366) translate(86.048780, 96.585366)">
                    <g transform="translate(179.601907, 180.483157) rotate(-315.000000) translate(-179.601907, -180.483157) translate(25.065322, 81.263645)">
                        <path d="M191.547119,123.086788 C234.852267,123.086788 274.955556,109.378 307.754034,86.0633757 C277.856492,148.004516 233.204734,187.259779 162.352659,187.259779 C75.853192,187.259779 11.4608024,128.428674 6.33570246,42.7155098 C5.49233888,28.6109341 6.34666762,15.3480438 6.4447331,0.24676634 C36.8791241,72.4234261 108.29659,123.086788 191.547119,123.086788 Z" id="Combined-Shape-Copy" fill="#C1A96E"></path>
                        <path d="M174.909708,157.509016 C228.251968,157.509016 275.982568,129.602998 307.86992,85.6746875 C288.654471,150.432508 228.692786,197.668283 157.698594,197.668283 C71.1991269,197.668283 1.07745414,127.54661 1.07745414,41.0471433 C1.07745414,27.7977304 2.72265402,14.9325746 5.81991095,2.64481866 C24.0681601,91.4654599 92.8485381,157.509016 174.909708,157.509016 Z" id="Combined-Shape" fill="#FFFAC0"></path>
                    </g>
                </g>
                <g id="banana" transform="translate(338.232576, 285.928279) scale(-1, 1) rotate(-345.000000) translate(-338.232576, -285.928279) translate(158.232576, 105.928279)">
                    <g transform="translate(179.601907, 180.483157) rotate(-315.000000) translate(-179.601907, -180.483157) translate(25.065322, 81.263645)">
                        <path d="M191.547119,123.086788 C234.852267,123.086788 274.955556,109.378 307.754034,86.0633757 C277.856492,148.004516 233.204734,187.259779 162.352659,187.259779 C75.853192,187.259779 11.4608024,128.428674 6.33570246,42.7155098 C5.49233888,28.6109341 6.34666762,15.3480438 6.4447331,0.24676634 C36.8791241,72.4234261 108.29659,123.086788 191.547119,123.086788 Z" id="Combined-Shape-Copy" fill="#C1A96E"></path>
                        <path d="M174.909708,157.509016 C228.251968,157.509016 275.982568,129.602998 307.86992,85.6746875 C288.654471,150.432508 228.692786,197.668283 157.698594,197.668283 C71.1991269,197.668283 1.07745414,127.54661 1.07745414,41.0471433 C1.07745414,27.7977304 2.72265402,14.9325746 5.81991095,2.64481866 C24.0681601,91.4654599 92.8485381,157.509016 174.909708,157.509016 Z" id="Combined-Shape" fill="#FFFAC0"></path>
                    </g>
                </g>
            </g>
            <g id="logo" transform="translate(630.000000, 719.000000)" fill="#FFFFFF">
                <g id="Group">
                    <path d="M1525.54375,443.392048 C1520.16691,499.076421 1472.51986,542.634146 1414.53659,542.634146 C1352.9501,542.634146 1303.02439,493.494668 1303.02439,432.878049 C1303.02439,384.660058 1334.61508,343.704272 1378.53658,328.967249 L1378.53659,112.390244 L1369.7561,112.390244 C1357.14784,112.390244 1346.92683,102.169232 1346.92683,89.5609756 L1346.92683,82.5365854 C1346.92683,69.9283286 1357.14784,59.7073171 1369.7561,59.7073171 L1378.63525,59.7073171 C1380.45551,27.3962148 1407.23347,1.75609756 1440,1.75609756 L1513.7561,1.75609756 L1513.7561,1.81167348 C1572.26231,3.66578773 1619.12195,51.6776394 1619.12195,110.634146 C1619.12195,160.456357 1585.65768,202.462566 1539.98005,215.401853 C1563.77736,220.474642 1581.62607,241.61634 1581.62607,266.926829 C1581.62607,269.798245 1581.39132,272.664855 1580.92416,275.498014 L1572.20272,328.390244 L1584,328.390244 C1597.57812,328.390244 1608.58537,339.397487 1608.58537,352.97561 L1608.58537,374.04878 C1608.58537,375.988512 1607.0129,377.560976 1605.07317,377.560976 L1513.7561,377.560976 L1510.87103,377.560976 L1415.41466,377.560976 C1384.37893,377.560976 1359.21951,402.327273 1359.21951,432.878049 C1359.21951,463.428825 1384.37893,488.195122 1415.41463,488.195122 C1444.94923,488.195122 1469.16222,465.766651 1471.43536,437.268293 L1471.62365,437.268293 C1472.08718,422.641741 1484.09014,410.926829 1498.82927,410.926829 C1513.86219,410.926829 1526.04878,423.11342 1526.04878,438.146341 C1526.04878,439.940756 1525.87514,441.694616 1525.54376,443.392036 Z M1556.32164,112.390244 L1559.41463,112.390244 C1572.02289,112.390244 1582.2439,102.169232 1582.2439,89.5609756 C1582.2439,76.9527189 1572.02289,66.7317073 1559.41463,66.7317073 L1487.41463,66.7317073 C1474.80638,66.7317073 1464.58537,76.9527189 1464.58537,89.5609756 C1464.58537,102.169232 1474.80638,112.390244 1487.41463,112.390244 L1492.26373,112.390244 C1490.27884,116.660151 1489.17073,121.420182 1489.17073,126.439024 C1489.17073,144.866477 1504.10913,159.804878 1522.53659,159.804878 L1526.04878,159.804878 C1544.47623,159.804878 1559.41463,144.866477 1559.41463,126.439024 C1559.41463,121.420182 1558.30653,116.660151 1556.32163,112.390242 Z M1496.19512,96.5853659 C1492.31566,96.5853659 1489.17073,93.4404392 1489.17073,89.5609756 C1489.17073,85.681512 1492.31566,82.5365854 1496.19512,82.5365854 C1500.07459,82.5365854 1503.21951,85.681512 1503.21951,89.5609756 C1503.21951,93.4404392 1500.07459,96.5853659 1496.19512,96.5853659 Z M1555.90244,96.5853659 C1552.02298,96.5853659 1548.87805,93.4404392 1548.87805,89.5609756 C1548.87805,85.681512 1552.02298,82.5365854 1555.90244,82.5365854 C1559.7819,82.5365854 1562.92683,85.681512 1562.92683,89.5609756 C1562.92683,93.4404392 1559.7819,96.5853659 1555.90244,96.5853659 Z M10.4065276,370.472382 C3.64228466,370.472382 0,366.830097 0,360.065855 L0,16.6504441 C0,9.88620121 3.64228466,6.24391655 10.4065276,6.24391655 L65.5611238,6.24391655 C72.3253667,6.24391655 75.9676514,9.88620121 75.9676514,16.6504441 L75.9676514,155.057261 L95.2197274,155.057261 L117.073435,15.6097914 C118.114088,8.84554845 122.276699,6.24391655 128.520616,6.24391655 L183.675212,6.24391655 C190.959781,6.24391655 194.602066,10.926854 193.041087,17.6910969 L160.780851,179.512601 C180.553254,195.642719 189.919128,223.220017 189.919128,255.480252 L189.919128,360.065855 C189.919128,366.830097 186.276844,370.472382 179.512601,370.472382 L123.317352,370.472382 C116.553109,370.472382 112.910824,366.830097 112.910824,360.065855 L112.910824,252.87862 C112.910824,233.626544 105.626255,225.301322 87.9351581,225.301322 L75.9676514,225.301322 L75.9676514,360.065855 C75.9676514,366.830097 72.3253667,370.472382 65.5611238,370.472382 L10.4065276,370.472382 Z M320.937525,376.716299 C262.660971,376.716299 223.116166,336.651167 223.116166,276.293307 L223.116166,100.422991 C223.116166,40.0651312 262.660971,0 320.937525,0 C379.21408,0 418.758884,40.0651312 418.758884,100.422991 L418.758884,276.293307 C418.758884,336.651167 379.21408,376.716299 320.937525,376.716299 Z M320.937525,305.431585 C333.945685,305.431585 341.75058,297.106363 341.75058,282.537224 L341.75058,94.1790747 C341.75058,79.609936 333.945685,71.284714 320.937525,71.284714 C307.929366,71.284714 300.12447,79.609936 300.12447,94.1790747 L300.12447,282.537224 C300.12447,297.106363 307.929366,305.431585 320.937525,305.431585 Z M489.939747,373.074014 C469.647019,373.074014 458.720165,362.14716 458.720165,341.854431 L458.720165,34.8618674 C458.720165,14.5691386 469.647019,3.64228466 489.939747,3.64228466 L552.378913,3.64228466 C610.135141,3.64228466 648.639293,43.7074159 648.639293,104.065276 L648.639293,272.651023 C648.639293,333.008883 610.135141,373.074014 552.378913,373.074014 L489.939747,373.074014 Z M535.208142,302.829953 L547.175649,302.829953 C564.34642,302.829953 571.630989,294.504731 571.630989,275.252655 L571.630989,101.463644 C571.630989,82.2115679 564.34642,73.8863459 547.175649,73.8863459 L535.208142,73.8863459 L535.208142,302.829953 Z M696.925795,370.472382 C690.161553,370.472382 686.519268,366.830097 686.519268,360.065855 L686.519268,100.422991 C686.519268,40.0651312 725.02342,0 782.259322,0 C839.495223,0 877.999375,40.0651312 877.999375,100.422991 L877.999375,360.065855 C877.999375,366.830097 874.357091,370.472382 867.592848,370.472382 L811.917925,370.472382 C805.153682,370.472382 801.511398,366.830097 801.511398,360.065855 L801.511398,265.366453 L763.007246,265.366453 L763.007246,360.065855 C763.007246,366.830097 759.364961,370.472382 752.600718,370.472382 L696.925795,370.472382 Z M763.007246,195.122392 L801.511398,195.122392 L801.511398,94.1790747 C801.511398,80.1302624 794.226828,71.8050403 782.259322,71.8050403 C770.291815,71.8050403 763.007246,80.1302624 763.007246,94.1790747 L763.007246,195.122392 Z M928.88751,370.472382 C922.123267,370.472382 918.480982,366.830097 918.480982,360.065855 L918.480982,100.422991 C918.480982,40.0651312 956.464808,0 1012.66006,0 C1070.93661,0 1110.48142,40.0651312 1110.48142,100.422991 L1110.48142,147.772692 C1110.48142,208.130552 1071.97726,248.195683 1014.22104,248.195683 L994.96896,248.195683 L994.96896,360.065855 C994.96896,366.830097 991.326675,370.472382 984.562432,370.472382 L928.88751,370.472382 Z M994.96896,177.951622 L1009.01777,177.951622 C1026.18854,177.951622 1033.47311,169.6264 1033.47311,150.374324 L1033.47311,94.1790747 C1033.47311,80.1302624 1026.18854,71.8050403 1013.70071,71.8050403 C1002.25353,71.8050403 994.96896,80.1302624 994.96896,94.1790747 L994.96896,177.951622 Z M1234.73557,376.716299 C1176.45902,376.716299 1136.91421,336.651167 1136.91421,276.293307 L1136.91421,100.422991 C1136.91421,40.0651312 1176.45902,0 1234.73557,0 C1293.01212,0 1332.55693,40.0651312 1332.55693,100.422991 L1332.55693,276.293307 C1332.55693,336.651167 1293.01212,376.716299 1234.73557,376.716299 Z M1234.73557,305.431585 C1247.74373,305.431585 1255.54862,297.106363 1255.54862,282.537224 L1255.54862,94.1790747 C1255.54862,79.609936 1247.74373,71.284714 1234.73557,71.284714 C1221.72741,71.284714 1213.92251,79.609936 1213.92251,94.1790747 L1213.92251,282.537224 C1213.92251,297.106363 1221.72741,305.431585 1234.73557,305.431585 Z" id="Combined-Shape"></path>
                </g>
            </g>
        </g>
    </g>
</svg>