<?xml version="1.0" encoding="UTF-8"?>
<svg width="2880px" height="1800px" viewBox="0 0 2880 1800" version="1.1" xmlns="http://www.w3.org/2000/svg" xmlns:xlink="http://www.w3.org/1999/xlink">
    <!-- Generator: Sketch 48.2 (47327) - http://www.bohemiancoding.com/sketch -->
    <title>Desktop-Logo</title>
    <desc>Created with Sketch.</desc>
    <defs></defs>
    <g id="Page-1" stroke="none" stroke-width="1" fill="none" fill-rule="evenodd">
        <g id="Desktop-Logo">
            <rect id="Rectangle-4" fill="#4D4D58" x="0" y="0" width="2880" height="1800"></rect>
            <g id="logo" transform="translate(630.000000, 719.000000)" fill="#FFFFFF">
                <g id="Group">
                    <path d="M1525.54375,443.392048 C1520.16691,499.076421 1472.51986,542.634146 1414.53659,542.634146 C1352.9501,542.634146 1303.02439,493.494668 1303.02439,432.878049 C1303.02439,384.660058 1334.61508,343.704272 1378.53658,328.967249 L1378.53659,112.390244 L1369.7561,112.390244 C1357.14784,112.390244 1346.92683,102.169232 1346.92683,89.5609756 L1346.92683,82.5365854 C1346.92683,69.9283286 1357.14784,59.7073171 1369.7561,59.7073171 L1378.63525,59.7073171 C1380.45551,27.3962148 1407.23347,1.75609756 1440,1.75609756 L1513.7561,1.75609756 L1513.7561,1.81167348 C1572.26231,3.66578773 1619.12195,51.6776394 1619.12195,110.634146 C1619.12195,160.456357 1585.65768,202.462566 1539.98005,215.401853 C1563.77736,220.474642 1581.62607,241.61634 1581.62607,266.926829 C1581.62607,269.798245 1581.39132,272.664855 1580.92416,275.498014 L1572.20272,328.390244 L1584,328.390244 C1597.57812,328.390244 1608.58537,339.397487 1608.58537,352.97561 L1608.58537,374.04878 C1608.58537,375.988512 1607.0129,377.560976 1605.07317,377.560976 L1513.7561,377.560976 L1510.87103,377.560976 L1415.41466,377.560976 C1384.37893,377.560976 1359.21951,402.327273 1359.21951,432.878049 C1359.21951,463.428825 1384.37893,488.195122 1415.41463,488.195122 C1444.94923,488.195122 1469.16222,465.766651 1471.43536,437.268293 L1471.62365,437.268293 C1472.08718,422.641741 1484.09014,410.926829 1498.82927,410.926829 C1513.86219,410.926829 1526.04878,423.11342 1526.04878,438.146341 C1526.04878,439.940756 1525.87514,441.694616 1525.54376,443.392036 Z M1556.32164,112.390244 L1559.41463,112.390244 C1572.02289,112.390244 1582.2439,102.169232 1582.2439,89.5609756 C1582.2439,76.9527189 1572.02289,66.7317073 1559.41463,66.7317073 L1487.41463,66.7317073 C1474.80638,66.7317073 1464.58537,76.9527189 1464.58537,89.5609756 C1464.58537,102.169232 1474.80638,112.390244 1487.41463,112.390244 L1492.26373,112.390244 C1490.27884,116.660151 1489.17073,121.420182 1489.17073,126.439024 C1489.17073,144.866477 1504.10913,159.804878 1522.53659,159.804878 L1526.04878,159.804878 C1544.47623,159.804878 1559.41463,144.866477 1559.41463,126.439024 C1559.41463,121.420182 1558.30653,116.660151 1556.32163,112.390242 Z M1496.19512,96.5853659 C1492.31566,96.5853659 1489.17073,93.4404392 1489.17073,89.5609756 C1489.17073,85.681512 1492.31566,82.5365854 1496.19512,82.5365854 C1500.07459,82.5365854 1503.21951,85.681512 1503.21951,89.5609756 C1503.21951,93.4404392 1500.07459,96.5853659 1496.19512,96.5853659 Z M1555.90244,96.5853659 C1552.02298,96.5853659 1548.87805,93.4404392 1548.87805,89.5609756 C1548.87805,85.681512 1552.02298,82.5365854 1555.90244,82.5365854 C1559.7819,82.5365854 1562.92683,85.681512 1562.92683,89.5609756 C1562.92683,93.4404392 1559.7819,96.5853659 1555.90244,96.5853659 Z M10.4065276,370.472382 C3.64228466,370.472382 0,366.830097 0,360.065855 L0,16.6504441 C0,9.88620121 3.64228466,6.24391655 10.4065276,6.24391655 L65.5611238,6.24391655 C72.3253667,6.24391655 75.9676514,9.88620121 75.9676514,16.6504441 L75.9676514,155.057261 L95.2197274,155.057261 L117.073435,15.6097914 C118.114088,8.84554845 122.276699,6.24391655 128.520616,6.24391655 L183.675212,6.24391655 C190.959781,6.24391655 194.602066,10.926854 193.041087,17.6910969 L160.780851,179.512601 C180.553254,195.642719 189.919128,223.220017 189.919128,255.480252 L189.919128,360.065855 C189.919128,366.830097 186.276844,370.472382 179.512601,370.472382 L123.317352,370.472382 C116.553109,370.472382 112.910824,366.830097 112.910824,360.065855 L112.910824,252.87862 C112.910824,233.626544 105.626255,225.301322 87.9351581,225.301322 L75.9676514,225.301322 L75.9676514,360.065855 C75.9676514,366.830097 72.3253667,370.472382 65.5611238,370.472382 L10.4065276,370.472382 Z M320.937525,376.716299 C262.660971,376.716299 223.116166,336.651167 223.116166,276.293307 L223.116166,100.422991 C223.116166,40.0651312 262.660971,0 320.937525,0 C379.21408,0 418.758884,40.0651312 418.758884,100.422991 L418.758884,276.293307 C418.758884,336.651167 379.21408,376.716299 320.937525,376.716299 Z M320.937525,305.431585 C333.945685,305.431585 341.75058,297.106363 341.75058,282.537224 L341.75058,94.1790747 C341.75058,79.609936 333.945685,71.284714 320.937525,71.284714 C307.929366,71.284714 300.12447,79.609936 300.12447,94.1790747 L300.12447,282.537224 C300.12447,297.106363 307.929366,305.431585 320.937525,305.431585 Z M489.939747,373.074014 C469.647019,373.074014 458.720165,362.14716 458.720165,341.854431 L458.720165,34.8618674 C458.720165,14.5691386 469.647019,3.64228466 489.939747,3.64228466 L552.378913,3.64228466 C610.135141,3.64228466 648.639293,43.7074159 648.639293,104.065276 L648.639293,272.651023 C648.639293,333.008883 610.135141,373.074014 552.378913,373.074014 L489.939747,373.074014 Z M535.208142,302.829953 L547.175649,302.829953 C564.34642,302.829953 571.630989,294.504731 571.630989,275.252655 L571.630989,101.463644 C571.630989,82.2115679 564.34642,73.8863459 547.175649,73.8863459 L535.208142,73.8863459 L535.208142,302.829953 Z M696.925795,370.472382 C690.161553,370.472382 686.519268,366.830097 686.519268,360.065855 L686.519268,100.422991 C686.519268,40.0651312 725.02342,0 782.259322,0 C839.495223,0 877.999375,40.0651312 877.999375,100.422991 L877.999375,360.065855 C877.999375,366.830097 874.357091,370.472382 867.592848,370.472382 L811.917925,370.472382 C805.153682,370.472382 801.511398,366.830097 801.511398,360.065855 L801.511398,265.366453 L763.007246,265.366453 L763.007246,360.065855 C763.007246,366.830097 759.364961,370.472382 752.600718,370.472382 L696.925795,370.472382 Z M763.007246,195.122392 L801.511398,195.122392 L801.511398,94.1790747 C801.511398,80.1302624 794.226828,71.8050403 782.259322,71.8050403 C770.291815,71.8050403 763.007246,80.1302624 763.007246,94.1790747 L763.007246,195.122392 Z M928.88751,370.472382 C922.123267,370.472382 918.480982,366.830097 918.480982,360.065855 L918.480982,100.422991 C918.480982,40.0651312 956.464808,0 1012.66006,0 C1070.93661,0 1110.48142,40.0651312 1110.48142,100.422991 L1110.48142,147.772692 C1110.48142,208.130552 1071.97726,248.195683 1014.22104,248.195683 L994.96896,248.195683 L994.96896,360.065855 C994.96896,366.830097 991.326675,370.472382 984.562432,370.472382 L928.88751,370.472382 Z M994.96896,177.951622 L1009.01777,177.951622 C1026.18854,177.951622 1033.47311,169.6264 1033.47311,150.374324 L1033.47311,94.1790747 C1033.47311,80.1302624 1026.18854,71.8050403 1013.70071,71.8050403 C1002.25353,71.8050403 994.96896,80.1302624 994.96896,94.1790747 L994.96896,177.951622 Z M1234.73557,376.716299 C1176.45902,376.716299 1136.91421,336.651167 1136.91421,276.293307 L1136.91421,100.422991 C1136.91421,40.0651312 1176.45902,0 1234.73557,0 C1293.01212,0 1332.55693,40.0651312 1332.55693,100.422991 L1332.55693,276.293307 C1332.55693,336.651167 1293.01212,376.716299 1234.73557,376.716299 Z M1234.73557,305.431585 C1247.74373,305.431585 1255.54862,297.106363 1255.54862,282.537224 L1255.54862,94.1790747 C1255.54862,79.609936 1247.74373,71.284714 1234.73557,71.284714 C1221.72741,71.284714 1213.92251,79.609936 1213.92251,94.1790747 L1213.92251,282.537224 C1213.92251,297.106363 1221.72741,305.431585 1234.73557,305.431585 Z" id="Combined-Shape"></path>
                </g>
            </g>
        </g>
    </g>
</svg>