<?xml version="1.0" encoding="UTF-8"?>
<svg width="1747px" height="543px" viewBox="0 0 1747 543" version="1.1" xmlns="http://www.w3.org/2000/svg" xmlns:xlink="http://www.w3.org/1999/xlink">
    <!-- Generator: Sketch 52.3 (67297) - http://www.bohemiancoding.com/sketch -->
    <title>sticker</title>
    <desc>Created with Sketch.</desc>
    <g id="Page-1" stroke="none" stroke-width="1" fill="none" fill-rule="evenodd">
        <g id="Sticker" transform="translate(-545.000000, -629.000000)">
            <g id="sticker" transform="translate(469.000000, 589.000000)">
                <g id="leaf-copy" transform="translate(159.709581, 219.843983) scale(-1, 1) rotate(15.000000) translate(-159.709581, -219.843983) translate(41.709581, 47.343983)">
                    <g id="leaf" transform="translate(117.978639, 172.275253) rotate(-345.000000) translate(-117.978639, -172.275253) translate(37.978639, 15.775253)"></g>
                </g>
                <rect id="Rectangle" x="1654" y="93" width="141" height="117"></rect>
                <g transform="translate(0.000000, 21.000000)">
                    <g id="leaf" transform="translate(159.648649, 198.518667) scale(-1, 1) rotate(15.000000) translate(-159.648649, -198.518667) translate(41.648649, 25.518667)">
                        <g transform="translate(118.062725, 172.785644) rotate(-345.000000) translate(-118.062725, -172.785644) translate(38.062725, 15.785644)" id="Combined-Shape">
                            <path d="M26.251378,88.3935406 L50.1850761,109.112173 L34.5921135,71.3180575 C46.6005724,48.2230609 61.7355334,24.7450829 79.9969964,0.884123377 C98.2584594,24.7450829 113.39342,48.2230609 125.401879,71.3180575 L109.808917,109.112173 L133.742615,88.3935406 C144.015551,110.887118 151.27341,133.011363 155.516193,154.766275 L133.347083,185.032491 L158.312138,172.46146 C159.433374,181.755542 159.993993,190.980951 159.993993,200.137687 C159.993993,211.461793 159.136573,221.971911 157.421732,231.668041 L123.956426,255.775278 L152.282971,251.637078 C140.865894,284.343168 116.770569,305.013227 79.9969964,313.647256 C43.223424,305.013227 19.1280991,284.343168 7.71102172,251.637078 L36.0375672,255.775278 L2.57226087,231.668041 C0.857420289,221.971911 0,211.461793 0,200.137687 C0,190.980951 0.560618355,181.755542 1.68185506,172.46146 L26.6469094,185.032491 L4.47779942,154.766275 C8.72058263,133.011363 15.9784422,110.887118 26.251378,88.3935406 Z" fill="#92D4CF"></path>
                            <path d="M79.9969964,0.884123377 L79.9969964,313.647256 C43.223424,305.013227 19.1280991,284.343168 7.71102172,251.637078 L36.0375672,255.775278 L2.57226087,231.668041 C0.857420289,221.971911 0,211.461793 0,200.137687 C0,190.980951 0.560618355,181.755542 1.68185506,172.46146 L26.6469094,185.032491 L4.47779942,154.766275 C8.72058263,133.011363 15.9784422,110.887118 26.251378,88.3935406 L50.1850761,109.112173 L34.5921135,71.3180575 C46.6005724,48.2230609 61.7355334,24.7450829 79.9969964,0.884123377 Z" fill="#A8FFC9"></path>
                        </g>
                    </g>
                    <path d="M1729.93206,452.796468 C1729.58969,513.16565 1679.79971,562 1618.43004,562 C1556.8482,562 1506.92625,512.827391 1506.92625,452.169903 C1506.92625,403.919403 1538.51455,362.936003 1582.43275,348.189044 L1582.43275,131.466019 L1573.65465,131.466019 C1561.04639,131.466019 1550.82538,121.245008 1550.82538,108.636751 L1550.82538,101.576841 C1550.82538,88.9685844 1561.04639,78.7475728 1573.65465,78.7475728 L1582.52923,78.7475728 C1584.3301,46.4180712 1611.11643,20.7572816 1643.89617,20.7572816 L1712.66685,20.7572816 C1713.15385,20.7605017 1713.64163,20.7572816 1714.13015,20.7572816 C1774.25731,20.7572816 1823,69.5365101 1823,129.708738 C1823,179.563386 1789.53979,221.597126 1743.86722,234.546183 C1767.66481,239.618762 1785.5138,260.760592 1785.5138,286.071276 C1785.5138,288.940577 1785.27939,291.805083 1784.81292,294.636211 L1776.0843,347.61165 L1787.86227,347.61165 C1801.44954,347.61165 1812.46421,358.626315 1812.46421,372.213592 L1812.46421,393.303339 C1812.46421,395.243071 1810.89174,396.815534 1808.95201,396.815534 L1745.88386,396.815534 L1618.89342,396.814555 C1587.94978,396.918496 1562.89764,421.661643 1562.89764,452.168924 C1562.89764,482.740298 1588.05516,507.523293 1619.08853,507.523293 C1650.1219,507.523293 1675.27942,482.740298 1675.27942,452.168924 C1675.28004,452.151249 1675.28003,452.14065 1675.28003,452.130049 C1675.28003,437.036107 1687.51609,424.800049 1702.61003,424.800049 C1717.70397,424.800049 1729.94003,437.036107 1729.94003,452.130049 C1729.94003,452.352821 1729.93736,452.574971 1729.93206,452.796468 Z M1760.21024,131.466019 L1763.29546,131.466019 C1775.90372,131.466019 1786.12473,121.245008 1786.12473,108.636751 L1786.12473,108.605967 C1786.12473,95.9977106 1775.90372,85.776699 1763.29546,85.776699 L1691.30432,85.776699 C1678.69607,85.776699 1668.47505,95.9977106 1668.47505,108.605967 L1668.47505,108.636751 C1668.47505,121.245008 1678.69607,131.466019 1691.30432,131.466019 L1696.14552,131.466019 C1694.16442,135.732582 1693.05857,140.488036 1693.05857,145.501776 L1693.05857,145.546768 C1693.05857,163.97422 1707.99697,178.912621 1726.42442,178.912621 L1729.93133,178.912621 C1748.35878,178.912621 1763.29718,163.97422 1763.29718,145.546768 L1763.29718,145.501776 C1763.29718,140.488036 1762.19133,135.732581 1760.21023,131.466018 Z M214.405744,389.722161 C207.64201,389.722161 204,386.077421 204,379.308617 L204,35.6616702 C204,28.8928667 207.64201,25.2481263 214.405744,25.2481263 L269.556186,25.2481263 C276.319919,25.2481263 279.96193,28.8928667 279.96193,35.6616702 L279.96193,174.161803 L299.212556,174.161803 L321.064617,34.6203158 C322.105192,27.8515123 326.267489,25.2481263 332.510936,25.2481263 L387.661378,25.2481263 C394.945398,25.2481263 398.587409,29.934221 397.026547,36.7030246 L364.768741,198.633631 C384.539654,214.774624 393.904824,242.370516 393.904824,274.652502 L393.904824,379.308617 C393.904824,386.077421 390.262814,389.722161 383.49908,389.722161 L327.308064,389.722161 C320.54433,389.722161 316.90232,386.077421 316.90232,379.308617 L316.90232,272.049116 C316.90232,252.78406 309.618299,244.453224 291.928535,244.453224 L279.96193,244.453224 L279.96193,379.308617 C279.96193,386.077421 276.319919,389.722161 269.556186,389.722161 L214.405744,389.722161 Z M524.913352,395.970288 C466.641187,395.970288 427.099361,355.878144 427.099361,295.479589 L427.099361,119.490698 C427.099361,59.0921438 466.641187,19 524.913352,19 C583.185517,19 622.727344,59.0921438 622.727344,119.490698 L622.727344,295.479589 C622.727344,355.878144 583.185517,395.970288 524.913352,395.970288 Z M524.913352,324.637512 C537.920532,324.637512 545.72484,316.306677 545.72484,301.727716 L545.72484,113.242572 C545.72484,98.6636105 537.920532,90.3327754 524.913352,90.3327754 C511.906173,90.3327754 504.101865,98.6636105 504.101865,113.242572 L504.101865,301.727716 C504.101865,316.306677 511.906173,324.637512 524.913352,324.637512 Z M693.902845,392.325547 C673.611645,392.325547 662.685614,381.391326 662.685614,361.084916 L662.685614,53.8853719 C662.685614,33.5789614 673.611645,22.6447403 693.902845,22.6447403 L756.337308,22.6447403 C814.089186,22.6447403 852.590438,62.7368842 852.590438,123.135439 L852.590438,291.834849 C852.590438,352.233403 814.089186,392.325547 756.337308,392.325547 L693.902845,392.325547 Z M739.167831,322.034126 L751.134436,322.034126 C768.303913,322.034126 775.587934,313.703291 775.587934,294.438235 L775.587934,120.532053 C775.587934,101.266996 768.303913,92.9361614 751.134436,92.9361614 L739.167831,92.9361614 L739.167831,322.034126 Z M900.873303,389.722161 C894.10957,389.722161 890.46756,386.077421 890.46756,379.308617 L890.46756,119.490698 C890.46756,59.0921438 928.968812,19 986.200402,19 C1043.43199,19 1081.93325,59.0921438 1081.93325,119.490698 L1081.93325,379.308617 C1081.93325,386.077421 1078.29123,389.722161 1071.5275,389.722161 L1015.85677,389.722161 C1009.09304,389.722161 1005.45103,386.077421 1005.45103,379.308617 L1005.45103,284.545368 L966.949776,284.545368 L966.949776,379.308617 C966.949776,386.077421 963.307766,389.722161 956.544033,389.722161 L900.873303,389.722161 Z M966.949776,214.253947 L1005.45103,214.253947 L1005.45103,113.242572 C1005.45103,99.1842877 998.167008,90.8534526 986.200402,90.8534526 C974.233797,90.8534526 966.949776,99.1842877 966.949776,113.242572 L966.949776,214.253947 Z M1132.81755,389.722161 C1126.05381,389.722161 1122.4118,386.077421 1122.4118,379.308617 L1122.4118,119.490698 C1122.4118,59.0921438 1160.39277,19 1216.58378,19 C1274.85595,19 1314.39778,59.0921438 1314.39778,119.490698 L1314.39778,166.872323 C1314.39778,227.270877 1275.89652,267.363021 1218.14465,267.363021 L1198.89402,267.363021 L1198.89402,379.308617 C1198.89402,386.077421 1195.25201,389.722161 1188.48828,389.722161 L1132.81755,389.722161 Z M1198.89402,197.0716 L1212.94177,197.0716 C1230.11125,197.0716 1237.39527,188.740765 1237.39527,169.475709 L1237.39527,113.242572 C1237.39527,99.1842877 1230.11125,90.8534526 1217.62436,90.8534526 C1206.17804,90.8534526 1198.89402,99.1842877 1198.89402,113.242572 L1198.89402,197.0716 Z M1438.64257,395.970288 C1380.37041,395.970288 1340.82858,355.878144 1340.82858,295.479589 L1340.82858,119.490698 C1340.82858,59.0921438 1380.37041,19 1438.64257,19 C1496.91474,19 1536.45656,59.0921438 1536.45656,119.490698 L1536.45656,295.479589 C1536.45656,355.878144 1496.91474,395.970288 1438.64257,395.970288 Z M1438.64257,324.637512 C1425.63539,324.637512 1417.83108,316.306677 1417.83108,301.727716 L1417.83108,113.242572 C1417.83108,98.6636105 1425.63539,90.3327754 1438.64257,90.3327754 C1451.64975,90.3327754 1459.45406,98.6636105 1459.45406,113.242572 L1459.45406,301.727716 C1459.45406,316.306677 1451.64975,324.637512 1438.64257,324.637512 Z M1700.19512,115.585366 C1696.31566,115.585366 1693.17073,112.440439 1693.17073,108.560976 C1693.17073,104.681512 1696.31566,101.536585 1700.19512,101.536585 C1704.07459,101.536585 1707.21951,104.681512 1707.21951,108.560976 C1707.21951,112.440439 1704.07459,115.585366 1700.19512,115.585366 Z M1759.90244,115.585366 C1756.02298,115.585366 1752.87805,112.440439 1752.87805,108.560976 C1752.87805,104.681512 1756.02298,101.536585 1759.90244,101.536585 C1763.7819,101.536585 1766.92683,104.681512 1766.92683,108.560976 C1766.92683,112.440439 1763.7819,115.585366 1759.90244,115.585366 Z" id="Combined-Shape-Copy-3" fill="#4D4D58"></path>
                </g>
            </g>
        </g>
    </g>
</svg>